<mxfile host="app.diagrams.net" modified="2021-02-24T08:04:46.421Z" agent="5.0 (Windows NT 10.0; Win64; x64) AppleWebKit/537.36 (KHTML, like Gecko) Chrome/88.0.4324.182 Safari/537.36" etag="C6u2fMO76rNo9V86-t5Y" version="14.4.2" type="github">
  <diagram name="Page-1" id="74b105a0-9070-1c63-61bc-23e55f88626e">
    <mxGraphModel dx="2937" dy="1614" grid="0" gridSize="10" guides="1" tooltips="1" connect="1" arrows="1" fold="1" page="1" pageScale="1.5" pageWidth="4681" pageHeight="3300" background="none" math="0" shadow="0">
      <root>
        <mxCell id="0" style=";html=1;" />
        <mxCell id="1" style=";html=1;" parent="0" />
        <mxCell id="10b056a9c633e61c-30" value="&lt;font style=&quot;vertical-align: inherit&quot;&gt;&lt;font style=&quot;vertical-align: inherit ; font-size: 40px&quot;&gt;全空间信息平台系统架构&lt;/font&gt;&lt;/font&gt;" style="text;strokeColor=none;fillColor=none;html=1;fontSize=24;fontStyle=1;verticalAlign=middle;align=center;" parent="1" vertex="1">
          <mxGeometry x="405" y="163" width="1590" height="40" as="geometry" />
        </mxCell>
        <mxCell id="8wHAxObJRUIpus0bgVMO-2" value="&lt;font style=&quot;vertical-align: inherit; font-size: 30px;&quot;&gt;&lt;font style=&quot;vertical-align: inherit; font-size: 30px;&quot;&gt;应用层&lt;/font&gt;&lt;/font&gt;" style="text;html=1;strokeColor=none;fillColor=none;align=center;verticalAlign=middle;whiteSpace=wrap;rounded=0;fontSize=30;" vertex="1" parent="1">
          <mxGeometry x="360" y="282" width="110" height="60" as="geometry" />
        </mxCell>
        <mxCell id="8wHAxObJRUIpus0bgVMO-4" style="edgeStyle=orthogonalEdgeStyle;rounded=0;html=1;endArrow=block;endFill=1;jettySize=auto;orthogonalLoop=1;strokeWidth=2;startArrow=none;startFill=0;" edge="1" parent="1" source="8wHAxObJRUIpus0bgVMO-5" target="8wHAxObJRUIpus0bgVMO-9">
          <mxGeometry relative="1" as="geometry" />
        </mxCell>
        <mxCell id="8wHAxObJRUIpus0bgVMO-5" value="Message Translator" style="strokeWidth=2;dashed=0;align=center;fontSize=12;shape=mxgraph.eip.message_translator;fillColor=#c0f5a9;verticalLabelPosition=bottom;verticalAlign=top;" vertex="1" parent="1">
          <mxGeometry x="3520" y="2010" width="150" height="90" as="geometry" />
        </mxCell>
        <mxCell id="8wHAxObJRUIpus0bgVMO-6" style="edgeStyle=orthogonalEdgeStyle;rounded=0;html=1;endArrow=block;endFill=1;jettySize=auto;orthogonalLoop=1;strokeWidth=2;startArrow=none;startFill=0;" edge="1" parent="1" source="8wHAxObJRUIpus0bgVMO-9" target="8wHAxObJRUIpus0bgVMO-16">
          <mxGeometry relative="1" as="geometry">
            <Array as="points">
              <mxPoint x="3990" y="2055" />
              <mxPoint x="3990" y="1860" />
            </Array>
          </mxGeometry>
        </mxCell>
        <mxCell id="8wHAxObJRUIpus0bgVMO-7" style="edgeStyle=orthogonalEdgeStyle;rounded=0;html=1;endArrow=block;endFill=1;jettySize=auto;orthogonalLoop=1;strokeWidth=2;startArrow=none;startFill=0;" edge="1" parent="1" source="8wHAxObJRUIpus0bgVMO-9" target="8wHAxObJRUIpus0bgVMO-19">
          <mxGeometry relative="1" as="geometry" />
        </mxCell>
        <mxCell id="8wHAxObJRUIpus0bgVMO-8" style="edgeStyle=orthogonalEdgeStyle;rounded=0;html=1;endArrow=block;endFill=1;jettySize=auto;orthogonalLoop=1;strokeWidth=2;startArrow=none;startFill=0;" edge="1" parent="1" source="8wHAxObJRUIpus0bgVMO-9" target="8wHAxObJRUIpus0bgVMO-28">
          <mxGeometry relative="1" as="geometry">
            <Array as="points">
              <mxPoint x="3990" y="2055" />
              <mxPoint x="3990" y="2305" />
            </Array>
          </mxGeometry>
        </mxCell>
        <mxCell id="8wHAxObJRUIpus0bgVMO-9" value="Recipient List" style="strokeWidth=2;dashed=0;align=center;fontSize=12;fillColor=#c0f5a9;verticalLabelPosition=bottom;verticalAlign=top;shape=mxgraph.eip.recipient_list;" vertex="1" parent="1">
          <mxGeometry x="3770" y="2010" width="150" height="90" as="geometry" />
        </mxCell>
        <mxCell id="8wHAxObJRUIpus0bgVMO-10" style="edgeStyle=orthogonalEdgeStyle;rounded=0;html=1;endArrow=block;endFill=1;jettySize=auto;orthogonalLoop=1;strokeWidth=2;startArrow=none;startFill=0;" edge="1" parent="1" source="8wHAxObJRUIpus0bgVMO-11" target="8wHAxObJRUIpus0bgVMO-5">
          <mxGeometry relative="1" as="geometry" />
        </mxCell>
        <mxCell id="8wHAxObJRUIpus0bgVMO-11" value="Message Endpoint" style="strokeWidth=2;dashed=0;align=center;fontSize=12;shape=rect;verticalLabelPosition=bottom;verticalAlign=top;fillColor=#c0f5a9" vertex="1" parent="1">
          <mxGeometry x="3310" y="2010" width="150" height="90" as="geometry" />
        </mxCell>
        <mxCell id="8wHAxObJRUIpus0bgVMO-12" value="" style="strokeWidth=1;dashed=0;align=center;fontSize=8;shape=rect;fillColor=#ffffff;strokeColor=#000000;" vertex="1" parent="8wHAxObJRUIpus0bgVMO-11">
          <mxGeometry x="85" y="25" width="40" height="40" as="geometry" />
        </mxCell>
        <mxCell id="8wHAxObJRUIpus0bgVMO-13" style="edgeStyle=orthogonalEdgeStyle;rounded=0;html=1;endArrow=block;endFill=1;jettySize=auto;orthogonalLoop=1;strokeWidth=2;startArrow=none;startFill=0;" edge="1" parent="1" source="8wHAxObJRUIpus0bgVMO-16" target="8wHAxObJRUIpus0bgVMO-21">
          <mxGeometry relative="1" as="geometry" />
        </mxCell>
        <mxCell id="8wHAxObJRUIpus0bgVMO-14" style="edgeStyle=orthogonalEdgeStyle;rounded=0;html=1;endArrow=block;endFill=1;jettySize=auto;orthogonalLoop=1;strokeWidth=2;startArrow=none;startFill=0;" edge="1" parent="1" source="8wHAxObJRUIpus0bgVMO-16" target="8wHAxObJRUIpus0bgVMO-24">
          <mxGeometry relative="1" as="geometry" />
        </mxCell>
        <mxCell id="8wHAxObJRUIpus0bgVMO-15" style="edgeStyle=orthogonalEdgeStyle;rounded=0;html=1;endArrow=block;endFill=1;jettySize=auto;orthogonalLoop=1;strokeWidth=2;startArrow=none;startFill=0;" edge="1" parent="1" source="8wHAxObJRUIpus0bgVMO-21" target="8wHAxObJRUIpus0bgVMO-11">
          <mxGeometry relative="1" as="geometry">
            <Array as="points">
              <mxPoint x="4405" y="1730" />
              <mxPoint x="3385" y="1730" />
            </Array>
          </mxGeometry>
        </mxCell>
        <mxCell id="8wHAxObJRUIpus0bgVMO-16" value="Message Endpoint" style="strokeWidth=2;dashed=0;align=center;fontSize=12;shape=rect;verticalLabelPosition=top;verticalAlign=bottom;fillColor=#c0f5a9;labelPosition=center;" vertex="1" parent="1">
          <mxGeometry x="4060" y="1790" width="150" height="90" as="geometry" />
        </mxCell>
        <mxCell id="8wHAxObJRUIpus0bgVMO-17" value="" style="strokeWidth=1;dashed=0;align=center;fontSize=8;shape=rect;fillColor=#ffffff;strokeColor=#000000;" vertex="1" parent="8wHAxObJRUIpus0bgVMO-16">
          <mxGeometry x="85" y="25" width="40" height="40" as="geometry" />
        </mxCell>
        <mxCell id="8wHAxObJRUIpus0bgVMO-18" style="edgeStyle=orthogonalEdgeStyle;rounded=0;html=1;endArrow=block;endFill=1;jettySize=auto;orthogonalLoop=1;strokeWidth=2;startArrow=none;startFill=0;" edge="1" parent="1" source="8wHAxObJRUIpus0bgVMO-19" target="8wHAxObJRUIpus0bgVMO-22">
          <mxGeometry relative="1" as="geometry" />
        </mxCell>
        <mxCell id="8wHAxObJRUIpus0bgVMO-19" value="Message Endpoint" style="strokeWidth=2;dashed=0;align=center;fontSize=12;shape=rect;verticalLabelPosition=bottom;verticalAlign=top;fillColor=#c0f5a9" vertex="1" parent="1">
          <mxGeometry x="4060" y="2090" width="150" height="90" as="geometry" />
        </mxCell>
        <mxCell id="8wHAxObJRUIpus0bgVMO-20" value="" style="strokeWidth=1;dashed=0;align=center;fontSize=8;shape=rect" vertex="1" parent="8wHAxObJRUIpus0bgVMO-19">
          <mxGeometry x="85" y="25" width="40" height="40" as="geometry" />
        </mxCell>
        <mxCell id="8wHAxObJRUIpus0bgVMO-21" value="Message Translator" style="strokeWidth=2;dashed=0;align=center;fontSize=12;shape=mxgraph.eip.message_translator;fillColor=#c0f5a9;verticalLabelPosition=bottom;verticalAlign=top;" vertex="1" parent="1">
          <mxGeometry x="4330" y="1790" width="150" height="90" as="geometry" />
        </mxCell>
        <mxCell id="8wHAxObJRUIpus0bgVMO-22" value="Message Translator" style="strokeWidth=2;dashed=0;align=center;fontSize=12;shape=mxgraph.eip.message_translator;fillColor=#c0f5a9;verticalLabelPosition=bottom;verticalAlign=top;" vertex="1" parent="1">
          <mxGeometry x="4330" y="2090" width="150" height="90" as="geometry" />
        </mxCell>
        <mxCell id="8wHAxObJRUIpus0bgVMO-23" style="edgeStyle=orthogonalEdgeStyle;rounded=0;html=1;endArrow=block;endFill=1;jettySize=auto;orthogonalLoop=1;strokeWidth=2;startArrow=none;startFill=0;" edge="1" parent="1" source="8wHAxObJRUIpus0bgVMO-24" target="8wHAxObJRUIpus0bgVMO-26">
          <mxGeometry relative="1" as="geometry" />
        </mxCell>
        <mxCell id="8wHAxObJRUIpus0bgVMO-24" value="Deqad Letter Channel" style="strokeWidth=1;dashed=0;align=center;html=1;fontSize=8;shape=mxgraph.eip.deadLetterChannel;verticalLabelPosition=bottom;labelBackgroundColor=#ffffff;verticalAlign=top;" vertex="1" parent="1">
          <mxGeometry x="4085" y="1970" width="100" height="20" as="geometry" />
        </mxCell>
        <mxCell id="8wHAxObJRUIpus0bgVMO-25" style="edgeStyle=orthogonalEdgeStyle;rounded=0;html=1;endArrow=block;endFill=1;jettySize=auto;orthogonalLoop=1;strokeWidth=2;startArrow=none;startFill=0;" edge="1" parent="1" source="8wHAxObJRUIpus0bgVMO-26" target="8wHAxObJRUIpus0bgVMO-30">
          <mxGeometry relative="1" as="geometry" />
        </mxCell>
        <mxCell id="8wHAxObJRUIpus0bgVMO-26" value="Envelope Wrapper" style="strokeWidth=2;dashed=0;align=center;fontSize=12;fillColor=#c0f5a9;verticalLabelPosition=bottom;verticalAlign=top;shape=mxgraph.eip.envelope_wrapper;horizontal=1;" vertex="1" parent="1">
          <mxGeometry x="4330" y="1935" width="150" height="90" as="geometry" />
        </mxCell>
        <mxCell id="8wHAxObJRUIpus0bgVMO-27" style="edgeStyle=orthogonalEdgeStyle;rounded=0;html=1;endArrow=block;endFill=1;jettySize=auto;orthogonalLoop=1;strokeWidth=2;startArrow=none;startFill=0;" edge="1" parent="1" source="8wHAxObJRUIpus0bgVMO-28" target="8wHAxObJRUIpus0bgVMO-31">
          <mxGeometry relative="1" as="geometry" />
        </mxCell>
        <mxCell id="8wHAxObJRUIpus0bgVMO-28" value="" style="strokeWidth=2;dashed=0;align=center;fontSize=12;fillColor=#c0f5a9;verticalLabelPosition=bottom;verticalAlign=top;shape=mxgraph.eip.composed_message_processor;" vertex="1" parent="1">
          <mxGeometry x="4060" y="2260" width="150" height="90" as="geometry" />
        </mxCell>
        <mxCell id="8wHAxObJRUIpus0bgVMO-29" style="edgeStyle=orthogonalEdgeStyle;rounded=0;html=1;endArrow=block;endFill=1;jettySize=auto;orthogonalLoop=1;fontSize=12;strokeWidth=2;startArrow=none;startFill=0;" edge="1" parent="1" source="8wHAxObJRUIpus0bgVMO-30" target="8wHAxObJRUIpus0bgVMO-11">
          <mxGeometry relative="1" as="geometry">
            <Array as="points">
              <mxPoint x="4645" y="1730" />
              <mxPoint x="3385" y="1730" />
            </Array>
          </mxGeometry>
        </mxCell>
        <mxCell id="8wHAxObJRUIpus0bgVMO-30" value="Message Store" style="strokeWidth=2;dashed=0;align=center;fontSize=12;verticalLabelPosition=bottom;verticalAlign=top;shape=mxgraph.eip.message_store;fillColor=#c0f5a9" vertex="1" parent="1">
          <mxGeometry x="4570" y="1935" width="150" height="90" as="geometry" />
        </mxCell>
        <mxCell id="8wHAxObJRUIpus0bgVMO-31" value="Message Translator" style="strokeWidth=2;dashed=0;align=center;fontSize=12;shape=mxgraph.eip.message_translator;fillColor=#c0f5a9;verticalLabelPosition=bottom;verticalAlign=top;" vertex="1" parent="1">
          <mxGeometry x="4330" y="2260" width="150" height="90" as="geometry" />
        </mxCell>
        <mxCell id="8wHAxObJRUIpus0bgVMO-85" style="edgeStyle=orthogonalEdgeStyle;rounded=0;orthogonalLoop=1;jettySize=auto;html=1;entryX=0.5;entryY=0;entryDx=0;entryDy=0;fontSize=30;" edge="1" parent="1" source="8wHAxObJRUIpus0bgVMO-32" target="8wHAxObJRUIpus0bgVMO-42">
          <mxGeometry relative="1" as="geometry" />
        </mxCell>
        <mxCell id="8wHAxObJRUIpus0bgVMO-32" value="" style="rounded=0;whiteSpace=wrap;html=1;fontSize=30;fillColor=#ffe6cc;strokeColor=#d79b00;" vertex="1" parent="1">
          <mxGeometry x="575" y="253" width="210" height="120" as="geometry" />
        </mxCell>
        <mxCell id="8wHAxObJRUIpus0bgVMO-35" value="" style="rounded=0;whiteSpace=wrap;html=1;fontSize=30;fillColor=#ffe6cc;strokeColor=#d79b00;" vertex="1" parent="1">
          <mxGeometry x="1565" y="253" width="210" height="120" as="geometry" />
        </mxCell>
        <mxCell id="8wHAxObJRUIpus0bgVMO-36" value="" style="rounded=0;whiteSpace=wrap;html=1;fontSize=30;fillColor=#ffe6cc;strokeColor=#d79b00;" vertex="1" parent="1">
          <mxGeometry x="1075" y="253" width="210" height="120" as="geometry" />
        </mxCell>
        <mxCell id="8wHAxObJRUIpus0bgVMO-37" value="终端显示" style="text;html=1;strokeColor=none;fillColor=none;align=center;verticalAlign=middle;whiteSpace=wrap;rounded=0;fontSize=30;" vertex="1" parent="1">
          <mxGeometry x="615" y="303" width="132.5" height="20" as="geometry" />
        </mxCell>
        <mxCell id="8wHAxObJRUIpus0bgVMO-38" value="细节控制" style="text;html=1;strokeColor=none;fillColor=none;align=center;verticalAlign=middle;whiteSpace=wrap;rounded=0;fontSize=30;" vertex="1" parent="1">
          <mxGeometry x="1118.75" y="303" width="122.5" height="20" as="geometry" />
        </mxCell>
        <mxCell id="8wHAxObJRUIpus0bgVMO-39" value="数据加载" style="text;html=1;align=center;verticalAlign=middle;whiteSpace=wrap;rounded=0;fontSize=30;" vertex="1" parent="1">
          <mxGeometry x="1608.75" y="303" width="122.5" height="20" as="geometry" />
        </mxCell>
        <mxCell id="8wHAxObJRUIpus0bgVMO-40" value="&lt;font style=&quot;vertical-align: inherit ; font-size: 30px&quot;&gt;&lt;font style=&quot;vertical-align: inherit ; font-size: 30px&quot;&gt;主控层&lt;/font&gt;&lt;/font&gt;" style="text;html=1;strokeColor=none;fillColor=none;align=center;verticalAlign=middle;whiteSpace=wrap;rounded=0;fontSize=30;" vertex="1" parent="1">
          <mxGeometry x="360" y="523" width="110" height="60" as="geometry" />
        </mxCell>
        <mxCell id="8wHAxObJRUIpus0bgVMO-56" style="edgeStyle=orthogonalEdgeStyle;rounded=0;orthogonalLoop=1;jettySize=auto;html=1;fontSize=30;" edge="1" parent="1" source="8wHAxObJRUIpus0bgVMO-42">
          <mxGeometry relative="1" as="geometry">
            <mxPoint x="681" y="743" as="targetPoint" />
          </mxGeometry>
        </mxCell>
        <mxCell id="8wHAxObJRUIpus0bgVMO-42" value="" style="rounded=0;whiteSpace=wrap;html=1;fontSize=30;fillColor=#f8cecc;strokeColor=#b85450;" vertex="1" parent="1">
          <mxGeometry x="576.25" y="503" width="210" height="120" as="geometry" />
        </mxCell>
        <mxCell id="8wHAxObJRUIpus0bgVMO-43" value="节点管理" style="text;html=1;strokeColor=none;fillColor=none;align=center;verticalAlign=middle;whiteSpace=wrap;rounded=0;fontSize=30;" vertex="1" parent="1">
          <mxGeometry x="615" y="553" width="132.5" height="20" as="geometry" />
        </mxCell>
        <mxCell id="8wHAxObJRUIpus0bgVMO-47" value="" style="endArrow=none;html=1;fontSize=30;" edge="1" parent="1">
          <mxGeometry width="50" height="50" relative="1" as="geometry">
            <mxPoint x="685" y="443" as="sourcePoint" />
            <mxPoint x="1670" y="443" as="targetPoint" />
          </mxGeometry>
        </mxCell>
        <mxCell id="8wHAxObJRUIpus0bgVMO-49" value="" style="endArrow=classic;html=1;fontSize=30;entryX=0;entryY=0.5;entryDx=0;entryDy=0;" edge="1" parent="1" target="8wHAxObJRUIpus0bgVMO-50">
          <mxGeometry width="50" height="50" relative="1" as="geometry">
            <mxPoint x="795" y="563" as="sourcePoint" />
            <mxPoint x="1045" y="563" as="targetPoint" />
          </mxGeometry>
        </mxCell>
        <mxCell id="8wHAxObJRUIpus0bgVMO-53" style="edgeStyle=orthogonalEdgeStyle;rounded=0;orthogonalLoop=1;jettySize=auto;html=1;fontSize=30;" edge="1" parent="1" source="8wHAxObJRUIpus0bgVMO-50">
          <mxGeometry relative="1" as="geometry">
            <mxPoint x="1565" y="563" as="targetPoint" />
          </mxGeometry>
        </mxCell>
        <mxCell id="8wHAxObJRUIpus0bgVMO-50" value="" style="rounded=0;whiteSpace=wrap;html=1;fontSize=30;fillColor=#ffe6cc;strokeColor=#d79b00;" vertex="1" parent="1">
          <mxGeometry x="1075" y="503" width="210" height="120" as="geometry" />
        </mxCell>
        <mxCell id="8wHAxObJRUIpus0bgVMO-52" value="组件注册" style="text;html=1;strokeColor=none;fillColor=none;align=center;verticalAlign=middle;whiteSpace=wrap;rounded=0;fontSize=30;" vertex="1" parent="1">
          <mxGeometry x="1118.75" y="553" width="126.25" height="20" as="geometry" />
        </mxCell>
        <mxCell id="8wHAxObJRUIpus0bgVMO-54" value="" style="rounded=0;whiteSpace=wrap;html=1;fontSize=30;fillColor=#ffe6cc;strokeColor=#d79b00;" vertex="1" parent="1">
          <mxGeometry x="1565" y="503" width="210" height="120" as="geometry" />
        </mxCell>
        <mxCell id="8wHAxObJRUIpus0bgVMO-55" value="消息发送" style="text;html=1;align=center;verticalAlign=middle;whiteSpace=wrap;rounded=0;fontSize=30;" vertex="1" parent="1">
          <mxGeometry x="1608.75" y="553" width="122.5" height="20" as="geometry" />
        </mxCell>
        <mxCell id="8wHAxObJRUIpus0bgVMO-69" style="edgeStyle=orthogonalEdgeStyle;rounded=0;orthogonalLoop=1;jettySize=auto;html=1;fontSize=30;" edge="1" parent="1" source="8wHAxObJRUIpus0bgVMO-57" target="8wHAxObJRUIpus0bgVMO-67">
          <mxGeometry relative="1" as="geometry" />
        </mxCell>
        <mxCell id="8wHAxObJRUIpus0bgVMO-78" style="edgeStyle=orthogonalEdgeStyle;rounded=0;orthogonalLoop=1;jettySize=auto;html=1;fontSize=30;" edge="1" parent="1" source="8wHAxObJRUIpus0bgVMO-57">
          <mxGeometry relative="1" as="geometry">
            <mxPoint x="680" y="983" as="targetPoint" />
          </mxGeometry>
        </mxCell>
        <mxCell id="8wHAxObJRUIpus0bgVMO-57" value="" style="rounded=0;whiteSpace=wrap;html=1;fontSize=30;fillColor=#ffe6cc;strokeColor=#d79b00;" vertex="1" parent="1">
          <mxGeometry x="575" y="743" width="210" height="120" as="geometry" />
        </mxCell>
        <mxCell id="8wHAxObJRUIpus0bgVMO-58" value="工具分析" style="text;html=1;strokeColor=none;fillColor=none;align=center;verticalAlign=middle;whiteSpace=wrap;rounded=0;fontSize=30;" vertex="1" parent="1">
          <mxGeometry x="613.75" y="793" width="132.5" height="20" as="geometry" />
        </mxCell>
        <mxCell id="8wHAxObJRUIpus0bgVMO-66" value="&lt;font style=&quot;vertical-align: inherit ; font-size: 30px&quot;&gt;&lt;font style=&quot;vertical-align: inherit ; font-size: 30px&quot;&gt;分析层&lt;/font&gt;&lt;/font&gt;" style="text;html=1;strokeColor=none;fillColor=none;align=center;verticalAlign=middle;whiteSpace=wrap;rounded=0;fontSize=30;" vertex="1" parent="1">
          <mxGeometry x="360" y="783" width="110" height="60" as="geometry" />
        </mxCell>
        <mxCell id="8wHAxObJRUIpus0bgVMO-71" style="edgeStyle=orthogonalEdgeStyle;rounded=0;orthogonalLoop=1;jettySize=auto;html=1;entryX=0;entryY=0.5;entryDx=0;entryDy=0;fontSize=30;" edge="1" parent="1" source="8wHAxObJRUIpus0bgVMO-67" target="8wHAxObJRUIpus0bgVMO-68">
          <mxGeometry relative="1" as="geometry" />
        </mxCell>
        <mxCell id="8wHAxObJRUIpus0bgVMO-67" value="" style="rounded=0;whiteSpace=wrap;html=1;fontSize=30;fillColor=#ffe6cc;strokeColor=#d79b00;" vertex="1" parent="1">
          <mxGeometry x="1076.88" y="743" width="210" height="120" as="geometry" />
        </mxCell>
        <mxCell id="8wHAxObJRUIpus0bgVMO-82" style="edgeStyle=orthogonalEdgeStyle;rounded=0;orthogonalLoop=1;jettySize=auto;html=1;entryX=0.5;entryY=0;entryDx=0;entryDy=0;fontSize=30;" edge="1" parent="1" source="8wHAxObJRUIpus0bgVMO-68" target="8wHAxObJRUIpus0bgVMO-79">
          <mxGeometry relative="1" as="geometry" />
        </mxCell>
        <mxCell id="8wHAxObJRUIpus0bgVMO-68" value="" style="rounded=0;whiteSpace=wrap;html=1;fontSize=30;fillColor=#ffe6cc;strokeColor=#d79b00;" vertex="1" parent="1">
          <mxGeometry x="1565" y="743" width="210" height="120" as="geometry" />
        </mxCell>
        <mxCell id="8wHAxObJRUIpus0bgVMO-70" value="命令分析" style="text;html=1;strokeColor=none;fillColor=none;align=center;verticalAlign=middle;whiteSpace=wrap;rounded=0;fontSize=30;" vertex="1" parent="1">
          <mxGeometry x="1116.88" y="793" width="126.25" height="20" as="geometry" />
        </mxCell>
        <mxCell id="8wHAxObJRUIpus0bgVMO-72" value="操作分析" style="text;html=1;align=center;verticalAlign=middle;whiteSpace=wrap;rounded=0;fontSize=30;" vertex="1" parent="1">
          <mxGeometry x="1608.75" y="793" width="122.5" height="20" as="geometry" />
        </mxCell>
        <mxCell id="8wHAxObJRUIpus0bgVMO-74" value="&lt;font style=&quot;vertical-align: inherit ; font-size: 30px&quot;&gt;&lt;font style=&quot;vertical-align: inherit ; font-size: 30px&quot;&gt;信息层&lt;/font&gt;&lt;/font&gt;" style="text;html=1;strokeColor=none;fillColor=none;align=center;verticalAlign=middle;whiteSpace=wrap;rounded=0;fontSize=30;" vertex="1" parent="1">
          <mxGeometry x="360" y="1013" width="110" height="60" as="geometry" />
        </mxCell>
        <mxCell id="8wHAxObJRUIpus0bgVMO-75" value="" style="rounded=0;whiteSpace=wrap;html=1;fontSize=30;fillColor=#ffe6cc;strokeColor=#d79b00;" vertex="1" parent="1">
          <mxGeometry x="575" y="983" width="210" height="120" as="geometry" />
        </mxCell>
        <mxCell id="8wHAxObJRUIpus0bgVMO-76" value="添加样式" style="text;html=1;strokeColor=none;fillColor=none;align=center;verticalAlign=middle;whiteSpace=wrap;rounded=0;fontSize=30;" vertex="1" parent="1">
          <mxGeometry x="613.75" y="1033" width="132.5" height="20" as="geometry" />
        </mxCell>
        <mxCell id="8wHAxObJRUIpus0bgVMO-86" style="edgeStyle=orthogonalEdgeStyle;rounded=0;orthogonalLoop=1;jettySize=auto;html=1;fontSize=30;entryX=0.5;entryY=0;entryDx=0;entryDy=0;" edge="1" parent="1" source="8wHAxObJRUIpus0bgVMO-79" target="8wHAxObJRUIpus0bgVMO-90">
          <mxGeometry relative="1" as="geometry">
            <mxPoint x="1670" y="1213" as="targetPoint" />
          </mxGeometry>
        </mxCell>
        <mxCell id="8wHAxObJRUIpus0bgVMO-79" value="" style="rounded=0;whiteSpace=wrap;html=1;fontSize=30;fillColor=#dae8fc;strokeColor=#6c8ebf;" vertex="1" parent="1">
          <mxGeometry x="1565" y="983" width="210" height="120" as="geometry" />
        </mxCell>
        <mxCell id="8wHAxObJRUIpus0bgVMO-81" value="添加视图" style="text;html=1;align=center;verticalAlign=middle;whiteSpace=wrap;rounded=0;fontSize=30;" vertex="1" parent="1">
          <mxGeometry x="1608.75" y="1033" width="122.5" height="20" as="geometry" />
        </mxCell>
        <mxCell id="8wHAxObJRUIpus0bgVMO-83" value="" style="endArrow=none;html=1;fontSize=30;entryX=0.5;entryY=1;entryDx=0;entryDy=0;" edge="1" parent="1" target="8wHAxObJRUIpus0bgVMO-36">
          <mxGeometry width="50" height="50" relative="1" as="geometry">
            <mxPoint x="1180" y="443" as="sourcePoint" />
            <mxPoint x="1395" y="693" as="targetPoint" />
          </mxGeometry>
        </mxCell>
        <mxCell id="8wHAxObJRUIpus0bgVMO-84" value="" style="endArrow=none;html=1;fontSize=30;entryX=0.5;entryY=1;entryDx=0;entryDy=0;" edge="1" parent="1" target="8wHAxObJRUIpus0bgVMO-35">
          <mxGeometry width="50" height="50" relative="1" as="geometry">
            <mxPoint x="1670" y="443" as="sourcePoint" />
            <mxPoint x="1190" y="383" as="targetPoint" />
          </mxGeometry>
        </mxCell>
        <mxCell id="8wHAxObJRUIpus0bgVMO-87" value="&lt;font style=&quot;vertical-align: inherit ; font-size: 30px&quot;&gt;&lt;font style=&quot;vertical-align: inherit ; font-size: 30px&quot;&gt;视图管理层&lt;/font&gt;&lt;/font&gt;" style="text;html=1;strokeColor=none;fillColor=none;align=center;verticalAlign=middle;whiteSpace=wrap;rounded=0;fontSize=30;" vertex="1" parent="1">
          <mxGeometry x="344" y="1291" width="155" height="60" as="geometry" />
        </mxCell>
        <mxCell id="8wHAxObJRUIpus0bgVMO-103" style="edgeStyle=orthogonalEdgeStyle;rounded=0;orthogonalLoop=1;jettySize=auto;html=1;entryX=0.5;entryY=0;entryDx=0;entryDy=0;fontSize=30;" edge="1" parent="1" source="8wHAxObJRUIpus0bgVMO-88" target="8wHAxObJRUIpus0bgVMO-102">
          <mxGeometry relative="1" as="geometry">
            <Array as="points">
              <mxPoint x="680" y="1433" />
            </Array>
          </mxGeometry>
        </mxCell>
        <mxCell id="8wHAxObJRUIpus0bgVMO-88" value="" style="rounded=0;whiteSpace=wrap;html=1;fontSize=30;fillColor=#ffe6cc;strokeColor=#d79b00;" vertex="1" parent="1">
          <mxGeometry x="575" y="1253" width="210" height="120" as="geometry" />
        </mxCell>
        <mxCell id="8wHAxObJRUIpus0bgVMO-89" value="" style="rounded=0;whiteSpace=wrap;html=1;fontSize=30;fillColor=#ffe6cc;strokeColor=#d79b00;" vertex="1" parent="1">
          <mxGeometry x="1075" y="1253" width="210" height="120" as="geometry" />
        </mxCell>
        <mxCell id="8wHAxObJRUIpus0bgVMO-113" style="edgeStyle=orthogonalEdgeStyle;rounded=0;orthogonalLoop=1;jettySize=auto;html=1;fontSize=30;entryX=0.5;entryY=0;entryDx=0;entryDy=0;" edge="1" parent="1" source="8wHAxObJRUIpus0bgVMO-90" target="8wHAxObJRUIpus0bgVMO-114">
          <mxGeometry relative="1" as="geometry">
            <mxPoint x="1670" y="1523" as="targetPoint" />
          </mxGeometry>
        </mxCell>
        <mxCell id="8wHAxObJRUIpus0bgVMO-90" value="" style="rounded=0;whiteSpace=wrap;html=1;fontSize=30;fillColor=#ffe6cc;strokeColor=#d79b00;" vertex="1" parent="1">
          <mxGeometry x="1565" y="1253" width="210" height="120" as="geometry" />
        </mxCell>
        <mxCell id="8wHAxObJRUIpus0bgVMO-91" value="" style="rounded=0;whiteSpace=wrap;html=1;fontSize=30;fillColor=#ffe6cc;strokeColor=#d79b00;" vertex="1" parent="1">
          <mxGeometry x="2015" y="1253" width="210" height="120" as="geometry" />
        </mxCell>
        <mxCell id="8wHAxObJRUIpus0bgVMO-93" value="事件处理器" style="text;html=1;strokeColor=none;fillColor=none;align=center;verticalAlign=middle;whiteSpace=wrap;rounded=0;fontSize=30;" vertex="1" parent="1">
          <mxGeometry x="1108.75" y="1303" width="156.25" height="20" as="geometry" />
        </mxCell>
        <mxCell id="8wHAxObJRUIpus0bgVMO-94" value="场景" style="text;html=1;strokeColor=none;fillColor=none;align=center;verticalAlign=middle;whiteSpace=wrap;rounded=0;fontSize=30;" vertex="1" parent="1">
          <mxGeometry x="1598.75" y="1303" width="156.25" height="20" as="geometry" />
        </mxCell>
        <mxCell id="8wHAxObJRUIpus0bgVMO-95" value="漫游器" style="text;html=1;align=center;verticalAlign=middle;whiteSpace=wrap;rounded=0;fontSize=30;" vertex="1" parent="1">
          <mxGeometry x="2065" y="1303" width="122.5" height="20" as="geometry" />
        </mxCell>
        <mxCell id="8wHAxObJRUIpus0bgVMO-96" value="" style="endArrow=none;html=1;fontSize=30;" edge="1" parent="1">
          <mxGeometry width="50" height="50" relative="1" as="geometry">
            <mxPoint x="678" y="1163" as="sourcePoint" />
            <mxPoint x="2115" y="1163" as="targetPoint" />
          </mxGeometry>
        </mxCell>
        <mxCell id="8wHAxObJRUIpus0bgVMO-97" value="" style="endArrow=classic;html=1;fontSize=30;entryX=0.5;entryY=0;entryDx=0;entryDy=0;" edge="1" parent="1" target="8wHAxObJRUIpus0bgVMO-88">
          <mxGeometry width="50" height="50" relative="1" as="geometry">
            <mxPoint x="680" y="1163" as="sourcePoint" />
            <mxPoint x="965" y="1093" as="targetPoint" />
          </mxGeometry>
        </mxCell>
        <mxCell id="8wHAxObJRUIpus0bgVMO-99" value="" style="endArrow=classic;html=1;fontSize=30;" edge="1" parent="1" target="8wHAxObJRUIpus0bgVMO-89">
          <mxGeometry width="50" height="50" relative="1" as="geometry">
            <mxPoint x="1182" y="1163" as="sourcePoint" />
            <mxPoint x="1395" y="923" as="targetPoint" />
          </mxGeometry>
        </mxCell>
        <mxCell id="8wHAxObJRUIpus0bgVMO-100" value="" style="endArrow=classic;html=1;fontSize=30;" edge="1" parent="1">
          <mxGeometry width="50" height="50" relative="1" as="geometry">
            <mxPoint x="2115" y="1163" as="sourcePoint" />
            <mxPoint x="2115" y="1243" as="targetPoint" />
          </mxGeometry>
        </mxCell>
        <mxCell id="8wHAxObJRUIpus0bgVMO-101" value="&lt;font style=&quot;vertical-align: inherit ; font-size: 30px&quot;&gt;&lt;font style=&quot;vertical-align: inherit ; font-size: 30px&quot;&gt;处理层&lt;/font&gt;&lt;/font&gt;" style="text;html=1;strokeColor=none;fillColor=none;align=center;verticalAlign=middle;whiteSpace=wrap;rounded=0;fontSize=30;" vertex="1" parent="1">
          <mxGeometry x="360" y="1543" width="110" height="60" as="geometry" />
        </mxCell>
        <mxCell id="8wHAxObJRUIpus0bgVMO-102" value="" style="rounded=0;whiteSpace=wrap;html=1;fontSize=30;fillColor=#ffe6cc;strokeColor=#d79b00;" vertex="1" parent="1">
          <mxGeometry x="576.25" y="1513" width="210" height="120" as="geometry" />
        </mxCell>
        <mxCell id="8wHAxObJRUIpus0bgVMO-104" value="" style="rounded=0;whiteSpace=wrap;html=1;fontSize=30;fillColor=#ffe6cc;strokeColor=#d79b00;" vertex="1" parent="1">
          <mxGeometry x="835" y="1513" width="210" height="120" as="geometry" />
        </mxCell>
        <mxCell id="8wHAxObJRUIpus0bgVMO-105" value="" style="rounded=0;whiteSpace=wrap;html=1;fontSize=30;fillColor=#ffe6cc;strokeColor=#d79b00;" vertex="1" parent="1">
          <mxGeometry x="1081.88" y="1513" width="210" height="120" as="geometry" />
        </mxCell>
        <mxCell id="8wHAxObJRUIpus0bgVMO-106" value="" style="endArrow=none;html=1;fontSize=30;" edge="1" parent="1">
          <mxGeometry width="50" height="50" relative="1" as="geometry">
            <mxPoint x="685" y="1443" as="sourcePoint" />
            <mxPoint x="1185" y="1443" as="targetPoint" />
          </mxGeometry>
        </mxCell>
        <mxCell id="8wHAxObJRUIpus0bgVMO-107" value="" style="endArrow=classic;html=1;fontSize=30;entryX=0.5;entryY=0;entryDx=0;entryDy=0;" edge="1" parent="1" target="8wHAxObJRUIpus0bgVMO-104">
          <mxGeometry width="50" height="50" relative="1" as="geometry">
            <mxPoint x="940" y="1443" as="sourcePoint" />
            <mxPoint x="1225" y="1113" as="targetPoint" />
          </mxGeometry>
        </mxCell>
        <mxCell id="8wHAxObJRUIpus0bgVMO-108" value="" style="endArrow=classic;html=1;fontSize=30;" edge="1" parent="1" target="8wHAxObJRUIpus0bgVMO-105">
          <mxGeometry width="50" height="50" relative="1" as="geometry">
            <mxPoint x="1185" y="1443" as="sourcePoint" />
            <mxPoint x="1225" y="1113" as="targetPoint" />
          </mxGeometry>
        </mxCell>
        <mxCell id="8wHAxObJRUIpus0bgVMO-109" value="视点" style="text;html=1;strokeColor=none;fillColor=none;align=center;verticalAlign=middle;whiteSpace=wrap;rounded=0;fontSize=30;" vertex="1" parent="1">
          <mxGeometry x="615" y="1563" width="132.5" height="20" as="geometry" />
        </mxCell>
        <mxCell id="8wHAxObJRUIpus0bgVMO-110" value="场景树" style="text;html=1;strokeColor=none;fillColor=none;align=center;verticalAlign=middle;whiteSpace=wrap;rounded=0;fontSize=30;" vertex="1" parent="1">
          <mxGeometry x="875" y="1563" width="132.5" height="20" as="geometry" />
        </mxCell>
        <mxCell id="8wHAxObJRUIpus0bgVMO-112" value="渲染器" style="text;html=1;strokeColor=none;fillColor=none;align=center;verticalAlign=middle;whiteSpace=wrap;rounded=0;fontSize=30;" vertex="1" parent="1">
          <mxGeometry x="1115.63" y="1563" width="132.5" height="20" as="geometry" />
        </mxCell>
        <mxCell id="8wHAxObJRUIpus0bgVMO-114" value="" style="rounded=0;whiteSpace=wrap;html=1;fontSize=30;fillColor=#ffe6cc;strokeColor=#d79b00;" vertex="1" parent="1">
          <mxGeometry x="1565" y="1513" width="210" height="120" as="geometry" />
        </mxCell>
        <mxCell id="8wHAxObJRUIpus0bgVMO-115" value="" style="endArrow=none;html=1;fontSize=30;" edge="1" parent="1">
          <mxGeometry width="50" height="50" relative="1" as="geometry">
            <mxPoint x="1429" y="1443" as="sourcePoint" />
            <mxPoint x="1925" y="1443" as="targetPoint" />
          </mxGeometry>
        </mxCell>
        <mxCell id="8wHAxObJRUIpus0bgVMO-116" value="" style="rounded=0;whiteSpace=wrap;html=1;fontSize=30;fillColor=#ffe6cc;strokeColor=#d79b00;" vertex="1" parent="1">
          <mxGeometry x="1325" y="1513" width="210" height="120" as="geometry" />
        </mxCell>
        <mxCell id="8wHAxObJRUIpus0bgVMO-117" value="" style="rounded=0;whiteSpace=wrap;html=1;fontSize=30;fillColor=#ffe6cc;strokeColor=#d79b00;" vertex="1" parent="1">
          <mxGeometry x="1815" y="1513" width="210" height="120" as="geometry" />
        </mxCell>
        <mxCell id="8wHAxObJRUIpus0bgVMO-118" value="" style="endArrow=classic;html=1;fontSize=30;entryX=0.5;entryY=0;entryDx=0;entryDy=0;" edge="1" parent="1" target="8wHAxObJRUIpus0bgVMO-116">
          <mxGeometry width="50" height="50" relative="1" as="geometry">
            <mxPoint x="1430" y="1443" as="sourcePoint" />
            <mxPoint x="1225" y="1113" as="targetPoint" />
          </mxGeometry>
        </mxCell>
        <mxCell id="8wHAxObJRUIpus0bgVMO-119" value="" style="endArrow=classic;html=1;fontSize=30;entryX=0.5;entryY=0;entryDx=0;entryDy=0;" edge="1" parent="1" target="8wHAxObJRUIpus0bgVMO-117">
          <mxGeometry width="50" height="50" relative="1" as="geometry">
            <mxPoint x="1920" y="1443" as="sourcePoint" />
            <mxPoint x="1225" y="1113" as="targetPoint" />
          </mxGeometry>
        </mxCell>
        <mxCell id="8wHAxObJRUIpus0bgVMO-120" value="图像处理器" style="text;html=1;strokeColor=none;fillColor=none;align=center;verticalAlign=middle;whiteSpace=wrap;rounded=0;fontSize=30;" vertex="1" parent="1">
          <mxGeometry x="1838.75" y="1563" width="156.25" height="20" as="geometry" />
        </mxCell>
        <mxCell id="8wHAxObJRUIpus0bgVMO-121" value="数据处理器" style="text;html=1;strokeColor=none;fillColor=none;align=center;verticalAlign=middle;whiteSpace=wrap;rounded=0;fontSize=30;" vertex="1" parent="1">
          <mxGeometry x="1591.88" y="1563" width="156.25" height="20" as="geometry" />
        </mxCell>
        <mxCell id="8wHAxObJRUIpus0bgVMO-122" value="场景图形节点" style="text;html=1;strokeColor=none;fillColor=none;align=center;verticalAlign=middle;whiteSpace=wrap;rounded=0;fontSize=30;" vertex="1" parent="1">
          <mxGeometry x="1335" y="1563" width="190" height="20" as="geometry" />
        </mxCell>
        <mxCell id="8wHAxObJRUIpus0bgVMO-123" value="摄像机" style="text;html=1;strokeColor=none;fillColor=none;align=center;verticalAlign=middle;whiteSpace=wrap;rounded=0;fontSize=30;" vertex="1" parent="1">
          <mxGeometry x="605" y="1303" width="156.25" height="20" as="geometry" />
        </mxCell>
      </root>
    </mxGraphModel>
  </diagram>
</mxfile>
